<svg xmlns="http://www.w3.org/2000/svg" viewBox="0 0 48 48" fill="none">
  <defs>
    <linearGradient id="shieldGrad" x1="6" y1="4" x2="42" y2="44" gradientUnits="userSpaceOnUse">
      <stop offset="0%" stop-color="#2563EB" />
      <stop offset="100%" stop-color="#0B172A" />
    </linearGradient>
    <linearGradient id="cyanAccent" x1="14" y1="10" x2="34" y2="38" gradientUnits="userSpaceOnUse">
      <stop offset="0%" stop-color="#06B6D4" />
      <stop offset="100%" stop-color="#2563EB" />
    </linearGradient>
    <filter id="glow" x="-20%" y="-20%" width="140%" height="140%">
      <feGaussianBlur stdDeviation="2" result="blur" />
      <feComposite in="SourceGraphic" in2="blur" operator="over" />
    </filter>
  </defs>
  
  <!-- Outer Shield Contour -->
  <path d="M24 4L8 10V22C8 31.8 14.8 40.9 24 44C33.2 40.9 40 31.8 40 22V10L24 4Z" 
        fill="url(#shieldGrad)" stroke="#06B6D4" stroke-width="1.8" stroke-linejoin="round" />
  
  <!-- Inner Document Outline with Folded Corner -->
  <path d="M16 14H28L34 20V34C34 35.1 33.1 36 32 36H16C14.9 36 14 35.1 14 34V16C14 14.9 14.9 14 16 14Z" 
        fill="#07111F" fill-opacity="0.85" stroke="#38BDF8" stroke-width="1.5" />
  <path d="M28 14V20H34" stroke="#38BDF8" stroke-width="1.5" stroke-linecap="round" stroke-linejoin="round" />
  
  <!-- Document Lines -->
  <line x1="18" y1="23" x2="26" y2="23" stroke="#94A3B8" stroke-width="1.5" stroke-linecap="round" />
  <line x1="18" y1="27" x2="24" y2="27" stroke="#94A3B8" stroke-width="1.5" stroke-linecap="round" />
  
  <!-- Digital Lock Badge Overlay at Center Bottom -->
  <circle cx="27" cy="30" r="7" fill="#0B172A" stroke="#06B6D4" stroke-width="1.5" filter="url(#glow)" />
  <rect x="24" y="29" width="6" height="5" rx="1" fill="#06B6D4" />
  <path d="M25 29V27C25 25.9 25.9 25 27 25C28.1 25 29 25.9 29 27V29" stroke="#38BDF8" stroke-width="1.2" stroke-linecap="round" />
  <circle cx="27" cy="31.5" r="0.8" fill="#07111F" />
</svg>
